<?xml version="1.0" encoding="utf-8"?>
<!-- Generator: Adobe Illustrator 22.0.1, SVG Export Plug-In . SVG Version: 6.00 Build 0)  -->
<svg version="1.1" id="Calque_1" xmlns="http://www.w3.org/2000/svg" xmlns:xlink="http://www.w3.org/1999/xlink" x="0px" y="0px"
	 viewBox="0 0 510.2 170.1" style="enable-background:new 0 0 510.2 170.1;" xml:space="preserve">
<style type="text/css">
	.st0{fill:none;}
	.st1{stroke:#FFFFFF;stroke-width:0.3275;stroke-miterlimit:10;}
	.st2{fill:#F7931E;stroke:#FFFFFF;stroke-width:0.9825;stroke-linecap:square;stroke-linejoin:round;stroke-miterlimit:10;}
</style>
<g>
	<g>
		<path d="M203.8,125.9H198V92c0-2.7,0.2-5.9,0.5-9.8h-0.1c-0.6,2.3-1.1,3.9-1.5,4.9l-17.2,38.7h-2.9l-17.2-38.5
			c-0.5-1.1-1-2.8-1.5-5.2h-0.1c0.2,2,0.3,5.3,0.3,9.9v33.8h-5.7V75.4h7.8l15.5,35.2c1.2,2.7,2,4.7,2.3,6h0.2c1-2.8,1.8-4.8,2.4-6.2
			l15.8-35h7.4V125.9z"/>
		<path d="M227.9,75.4v5.1H223v40.3h4.9v5.1h-15.8v-5.1h4.9V80.5h-4.9v-5.1H227.9z"/>
		<path d="M270.6,123.7c-3.7,2-8.4,3-13.9,3c-7.2,0-12.9-2.3-17.2-6.9c-4.3-4.6-6.5-10.7-6.5-18.2c0-8.1,2.4-14.6,7.3-19.5
			c4.9-5,11-7.5,18.5-7.5c4.8,0,8.7,0.7,11.9,2.1V83c-3.6-2-7.6-3-12-3c-5.8,0-10.5,1.9-14.1,5.8c-3.6,3.9-5.4,9-5.4,15.5
			c0,6.1,1.7,11,5,14.7c3.4,3.6,7.8,5.5,13.2,5.5c5.1,0,9.4-1.1,13.1-3.4V123.7z"/>
		<path d="M317.1,122.3c-5.2,2.9-10.6,4.4-16.1,4.4c-6.9,0-12.4-2.3-16.7-7c-4.2-4.7-6.4-10.8-6.4-18.4c0-7.6,2.3-14,6.9-19.1
			c4.6-5.1,10.7-7.7,18.3-7.7c4.4,0,8.7,0.9,12.9,2.7v3.8c-4.6-2.2-9-3.3-13.4-3.3c-6.4,0-11.5,2.2-15.3,6.5
			c-3.9,4.3-5.8,9.9-5.8,16.6c0,7.1,1.8,12.6,5.4,16.6c3.6,4,8.5,6,14.6,6c4.5,0,8.5-1,12-3V104h-11.9v-3.2h15.4V122.3z"/>
		<path d="M354.6,125.9l-6.7-14.8c-1.4-3-2.8-5.1-4.1-6.1c-1.4-1-3.1-1.6-5.2-1.6h-6.3v22.5h-3.5V75.4h14c4.5,0,8,1.2,10.5,3.6
			c2.5,2.4,3.8,5.6,3.8,9.5c0,3.6-1,6.7-3.1,9.1c-2.1,2.4-5,4-8.8,4.7v0.1c2,0.8,3.9,3.2,5.8,7.3l7.5,16.1H354.6z M332.3,78.6v21.6
			h8.7c3.8,0,6.9-1,9.2-3c2.3-2,3.4-4.8,3.4-8.3c0-3.2-1-5.7-3.1-7.5c-2-1.8-5-2.7-8.8-2.7H332.3z"/>
		<path d="M377.1,75.4v3.2h-4.9v44.1h4.9v3.2h-13.3v-3.2h4.9V78.6h-4.9v-3.2H377.1z"/>
		<path d="M385,125.9V75.4h3.5v47.3h20.2v3.2H385z"/>
		<path d="M418,125.9V75.4h3.5v47.3h20.2v3.2H418z"/>
	</g>
	<g>
		<g>
			<g>
				<path class="st0" d="M119,114.9l-15.7,9.3C109.3,122.5,114.7,119.2,119,114.9z"/>
				<path class="st0" d="M129,90.3c0-1,0-1.9-0.1-2.9l-54.4,32.1c2.3,1.5,4.8,2.8,7.4,3.7l46.7-27.6C128.9,94,129,92.2,129,90.3z"/>
				<path class="st0" d="M128,98.8l-43.1,25.5c2.9,0.8,5.9,1.2,9,1.2c1,0,2,0,2.9-0.1l26.3-15.5C125.3,106.5,127,102.7,128,98.8z"/>
				<path class="st0" d="M115.8,62.9L59.3,96.2c0.4,2.4,1.1,4.7,1.9,7L121,67.9C119.4,66.1,117.7,64.4,115.8,62.9z"/>
				<path class="st0" d="M106.5,57.5l-47.4,28c-0.2,1.6-0.3,3.1-0.3,4.8c0,1.2,0.1,2.3,0.2,3.5l54.8-32.4
					C111.5,59.8,109.1,58.5,106.5,57.5z"/>
				<path class="st0" d="M122.4,69.7l-60.2,35.6c1,2.1,2.2,4.1,3.6,6l60.1-35.5C124.9,73.7,123.7,71.6,122.4,69.7z"/>
				<path class="st0" d="M126.8,77.9l-59.6,35.2c1.6,1.8,3.3,3.5,5.3,5L128.6,85C128.2,82.5,127.6,80.2,126.8,77.9z"/>
				<path d="M86.4,56L67.5,67.1c-1.3,1.5-2.5,3.1-3.5,4.7l28.2-16.6C90.2,55.3,88.2,55.6,86.4,56z"/>
				<path d="M103.7,56.6l-44,26c-0.2,1-0.4,2-0.5,3l47.4-28C105.6,57.2,104.6,56.9,103.7,56.6z"/>
				<path d="M113.8,61.4L59,93.8c0.1,0.8,0.2,1.7,0.3,2.5l56.5-33.4C115.1,62.3,114.5,61.8,113.8,61.4z"/>
				<path d="M121,67.9l-59.7,35.3c0.3,0.7,0.6,1.4,0.9,2.1l60.2-35.6C121.9,69.1,121.4,68.5,121,67.9z"/>
				<path d="M125.9,75.8l-60.1,35.5c0.5,0.6,0.9,1.2,1.4,1.8l59.6-35.2C126.5,77.2,126.2,76.5,125.9,75.8z"/>
				<path d="M128.6,85l-56.1,33.2c0.7,0.5,1.3,1,2,1.5l54.4-32.1C128.8,86.6,128.7,85.8,128.6,85z"/>
				<path d="M128.6,95.8l-46.7,27.6c1,0.3,1.9,0.7,2.9,0.9L128,98.8C128.2,97.8,128.4,96.8,128.6,95.8z"/>
				<path d="M96.9,125.3c2.2-0.2,4.4-0.6,6.5-1.1l15.7-9.3c1.5-1.6,2.9-3.3,4.2-5.1L96.9,125.3z"/>
			</g>
			<path class="st1" d="M135.1,83.8c-0.1-0.8-0.3-1.6-0.5-2.4c-0.5-2.4-1.2-4.7-2.1-6.9c-0.3-0.7-0.6-1.4-0.9-2.1
				c-1-2.1-2.2-4.1-3.5-6c-0.4-0.6-0.9-1.2-1.4-1.9c-1.5-1.9-3.1-3.6-4.9-5.2c-0.6-0.5-1.2-1.1-1.8-1.6c-2-1.6-4.2-3.1-6.5-4.3
				c-0.8-0.4-1.6-0.8-2.5-1.2c-2.8-1.3-5.8-2.2-8.9-2.8c-1.2-0.2-2.4-0.4-3.6-0.5c-1.5-0.2-3-0.3-4.6-0.3c-4,0-7.8,0.6-11.4,1.6
				c-7,2-13.2,5.7-18.2,10.7c-3.8,3.8-6.8,8.4-8.9,13.4c-0.5,1.1-0.9,2.2-1.2,3.4c-0.9,2.9-1.5,6-1.8,9.2c-0.1,0.9-0.1,1.8-0.1,2.7
				c0,0.2,0,0.4,0,0.7c0,2.4,0.2,4.8,0.6,7.1c0.1,0.8,0.3,1.6,0.5,2.4c0.5,2.4,1.3,4.6,2.2,6.8c0.3,0.7,0.6,1.4,1,2.1
				c1,2.1,2.2,4.1,3.6,6c0.5,0.6,0.9,1.2,1.4,1.8c1.5,1.9,3.2,3.6,5,5.2c0.6,0.5,1.2,1.1,1.9,1.6c2.1,1.6,4.3,3,6.6,4.2
				c0.8,0.4,1.7,0.8,2.5,1.2c2.9,1.2,5.9,2.2,9.1,2.7c1.2,0.2,2.4,0.4,3.7,0.5c1.2,0.1,2.4,0.2,3.7,0.2c4.8,0,9.4-0.8,13.7-2.3
				c5.3-1.8,10-4.7,14.1-8.3c4.4-3.9,7.9-8.8,10.3-14.2c0.5-1.1,1-2.3,1.3-3.5c1-3,1.7-6.1,2-9.3c0.1-0.9,0.1-1.8,0.2-2.8
				c0-0.4,0-0.9,0-1.3C135.6,88.1,135.4,85.9,135.1,83.8z M128,98.8c-1,4-2.6,7.7-4.8,11c-1.2,1.8-2.6,3.5-4.2,5.1
				c-4.3,4.3-9.6,7.6-15.7,9.3c-2.1,0.6-4.2,1-6.5,1.1c-1,0.1-2,0.1-2.9,0.1c-3.1,0-6.1-0.4-9-1.2c-1-0.3-2-0.6-2.9-0.9
				c-2.6-1-5.1-2.2-7.4-3.7c-0.7-0.5-1.4-0.9-2-1.5c-1.9-1.5-3.7-3.2-5.3-5c-0.5-0.6-1-1.2-1.4-1.8c-1.4-1.9-2.6-3.9-3.6-6
				c-0.3-0.7-0.6-1.4-0.9-2.1c-0.9-2.2-1.5-4.6-1.9-7c-0.1-0.8-0.2-1.6-0.3-2.5c-0.1-1.1-0.2-2.3-0.2-3.5c0-1.6,0.1-3.2,0.3-4.8
				c0.1-1,0.3-2,0.5-3c0.9-3.8,2.4-7.4,4.4-10.7c1-1.7,2.2-3.3,3.5-4.7c4.8-5.5,11.4-9.5,18.8-11.1c1.9-0.4,3.8-0.7,5.8-0.8
				c0.6,0,1.2,0,1.7,0c3.4,0,6.7,0.5,9.8,1.4c1,0.3,1.9,0.6,2.9,1c2.6,1,5,2.3,7.3,3.8c0.7,0.5,1.4,1,2,1.5c1.9,1.5,3.6,3.2,5.2,5.1
				c0.5,0.6,1,1.2,1.4,1.8c1.4,1.9,2.5,3.9,3.5,6c0.3,0.7,0.6,1.4,0.9,2.1c0.8,2.2,1.5,4.6,1.8,7c0.1,0.8,0.2,1.7,0.3,2.5
				c0.1,0.9,0.1,1.9,0.1,2.9c0,1.9-0.1,3.7-0.4,5.4C128.4,96.8,128.2,97.8,128,98.8z"/>
		</g>
		<path class="st2" d="M87.3,68.9c5.4-8.6,6.3-15.4,6.1-20.3c-0.6-11.2-8-23.2-7.1-23.6c0.1,0,0.2,0,0.2,0
			c20.9,13.4,24.4,24.5,24.4,24.5c2.5,4.8,5.1,13.3,5.8,21.6c1,11-1.5,21.2-0.6,20.1c1-1.3,3.6-3.7,4.5-8.4
			c1.3-6.9-1.9-12.7-1.4-12.3c0.8,0.6,6,8,6.3,14.8c0.2,4.1-0.8,8.3-0.8,8.3c-0.2,0.7-0.3,1.3-0.4,1.5c-0.6,2.4-3.9,16.2-17,21.9
			c-1.9,0.8-14.6,6.1-22.2-0.4c-6.3-5.4-5.5-15.6-4.6-21.4c0.6-3.5,3.1-12.1,3.8-13.5c-1.4,2-11.4,18.2-6.2,34
			c-10.6-5.8-11.8-13.3-12.3-17.5c-0.5-4.2,0-18,7.4-26.7c7.4-8.7,14.3-17.9,10.5-24C89.2,51.8,90.6,63.9,87.3,68.9z"/>
	</g>
</g>
</svg>
